<svg width="960" height="760" viewBox="0 0 960 760" fill="none" xmlns="http://www.w3.org/2000/svg">
  <rect width="960" height="760" rx="36" fill="#15191F"/>
  <rect x="54" y="54" width="852" height="652" rx="26" fill="#1E2530"/>
  <path d="M401.386 168L536.563 216.457L583 363.479L497.415 524.894L344.084 592L235 487.277L252.591 286.585L401.386 168Z" fill="#F4EFE6"/>
  <path d="M401.386 168L536.563 216.457L583 363.479L497.415 524.894L344.084 592L235 487.277L252.591 286.585L401.386 168Z" stroke="#FA6B2D" stroke-width="8"/>
  <circle cx="423" cy="314" r="22" fill="#FA6B2D"/>
  <circle cx="356" cy="438" r="18" fill="#FA6B2D"/>
  <circle cx="441" cy="507" r="18" fill="#FA6B2D"/>
  <path d="M423 314L356 438L441 507" stroke="#FA6B2D" stroke-width="6" stroke-linecap="round"/>
  <rect x="630" y="186" width="172" height="20" rx="10" fill="#F4EFE6"/>
  <rect x="630" y="224" width="124" height="14" rx="7" fill="#7D8792"/>
  <rect x="630" y="310" width="226" height="120" rx="24" fill="#FA6B2D"/>
  <rect x="630" y="458" width="184" height="18" rx="9" fill="#F4EFE6"/>
  <rect x="630" y="492" width="208" height="18" rx="9" fill="#7D8792"/>
  <rect x="630" y="526" width="148" height="18" rx="9" fill="#7D8792"/>
</svg>
